<?xml version="1.0" encoding="UTF-8"?>
<svg version="1.1" xmlns="http://www.w3.org/2000/svg" width="500" height="500">
<path d="M0 0 C165 0 330 0 500 0 C500 165 500 330 500 500 C335 500 170 500 0 500 C0 335 0 170 0 0 Z " fill="#FEFEFE" transform="translate(0,0)"/>
<path d="M0 0 C11.82427121 -0.07019844 23.64849106 -0.12315972 35.47292995 -0.15543652 C40.96632298 -0.17094504 46.45957116 -0.19190444 51.95288086 -0.22631836 C135.8879832 -0.73768261 135.8879832 -0.73768261 162.6875 24.6875 C173.80697063 35.80697063 182.54065569 49.17233336 185 65 C185.83160645 64.86070068 186.66321289 64.72140137 187.52001953 64.57788086 C202.48596012 62.37355715 217.528072 62.61936758 232.62597656 62.54370117 C236.26910549 62.52197609 239.91173384 62.48257693 243.5546875 62.44140625 C244.65593964 62.44129044 245.75719177 62.44117462 246.89181519 62.4410553 C253.73454708 62.35402381 259.56773356 61.35510263 266 59 C265.63549805 61.42236328 265.63549805 61.42236328 265 64 C261.47096916 66.02203929 257.67418214 66.51166429 253.6875 67.125 C252.61886719 67.29257813 251.55023438 67.46015625 250.44921875 67.6328125 C249.64097656 67.75398438 248.83273437 67.87515625 248 68 C245.78766264 74.72032279 244.29749762 81.24708187 243.4375 88.265625 C243.31383057 89.24678284 243.19016113 90.22794067 243.06274414 91.23883057 C241.64950818 103.05755647 240.94445348 114.92597516 240.2366333 126.80392456 C239.87211263 132.88263809 239.48058573 138.95958236 239.09019852 145.03668022 C238.96187147 147.03622844 238.83425041 149.03582192 238.70663452 151.03541565 C230.53461598 278.83504869 230.53461598 278.83504869 190.125 314.5 C184.2309866 319.17217751 177.96139889 322.23412876 171 325 C170.17371094 325.3609375 169.34742188 325.721875 168.49609375 326.09375 C162.09268544 328.41861812 155.47725669 328.21536805 148.75 328.25 C147.27080078 328.2809375 147.27080078 328.2809375 145.76171875 328.3125 C130.94140129 328.39060444 119.98966273 322.41529025 109.31640625 312.41015625 C94.40796954 296.89834267 88.82424278 276.94911955 88.8125 256 C88.80025391 254.85015625 88.78800781 253.7003125 88.77539062 252.515625 C88.76520099 246.61922338 88.95753099 241.55422402 91 236 C69.52283363 239.45695179 48.12524686 245.12073292 33 262 C26.72453845 270.80916578 22.10676617 279.72092662 20.3125 290.4375 C20.18294922 291.16904297 20.05339844 291.90058594 19.91992188 292.65429688 C19.60570185 294.434877 19.30175932 296.21726583 19 298 C17.02 298 15.04 298 13 298 C13.41151804 281.42704622 22.23771635 266.30347117 34 255 C45.8663118 244.80117646 59.92331517 238.64851912 75 235 C75.76957031 234.78730469 76.53914063 234.57460938 77.33203125 234.35546875 C80.02012297 233.61849686 82.43472282 232.96145837 85.234375 233.15234375 C87.96469783 233.26687071 89.52345384 233.20006865 92 232 C93.72579869 229.3050703 95.05463698 226.58446891 96.33178711 223.65380859 C100.65564381 213.84576279 108.4763143 205.98930943 118.125 201.3125 C118.97320312 200.89613281 119.82140625 200.47976563 120.6953125 200.05078125 C127.63831066 196.8852448 137.33478258 196.69319744 144.69140625 198.75390625 C148.32254604 200.51090938 151.75882802 202.63824202 154 206 C154.61763889 211.55875001 154.35596271 214.39192105 151 219 C148.546875 220.9140625 148.546875 220.9140625 145.75 222.625 C144.83734375 223.19476563 143.9246875 223.76453125 142.984375 224.3515625 C136.13992537 228.13213546 129.55261031 230.00429868 121.9375 231.625 C120.92486084 231.84373779 119.91222168 232.06247559 118.86889648 232.2878418 C111.23586034 233.87696804 103.80909728 234.8511264 96 235 C89.64213794 255.32245194 93.43962067 274.53902428 102.5625 293.1953125 C109.04247422 305.12718811 117.92847417 314.62891692 130 321 C130.6290625 321.35835938 131.258125 321.71671875 131.90625 322.0859375 C140.81960763 326.34714795 152.76559526 324.91454389 161.875 321.9375 C168.36875148 319.50661091 173.71612628 316.47530941 179 312 C179.68320312 311.42765625 180.36640625 310.8553125 181.0703125 310.265625 C202.60198265 290.50715122 211.20243907 255.63645068 216 228 C216.29535645 226.32623291 216.29535645 226.32623291 216.59667969 224.61865234 C217.26814155 220.7691747 217.91916461 216.91677469 218.5625 213.0625 C218.76061279 211.89251465 218.95872559 210.7225293 219.1628418 209.51708984 C223.41105739 183.14340941 225.12071814 156.38297103 227.25616455 129.77435303 C227.63857018 125.01260401 228.02419348 120.25113611 228.41396904 115.48998451 C228.59093437 113.31315388 228.76338447 111.13599964 228.93556213 108.95878601 C231.32426344 79.35147313 231.32426344 79.35147313 237 68 C211.755 68.495 211.755 68.495 186 69 C186.99 75.93 186.99 75.93 188 83 C188.20119474 87.48899422 188.33500549 91.89086213 188.3125 96.375 C188.30512817 98.1369873 188.30512817 98.1369873 188.29760742 99.93457031 C187.95397301 125.50097054 179.48126278 150.16795332 161.4140625 168.64453125 C157.61758195 172.16649705 153.80303267 175.2479379 149.375 177.9375 C148.26125 178.618125 147.1475 179.29875 146 180 C146 180.66 146 181.32 146 182 C148.37731992 183.89076999 150.75830647 185.64504573 153.25 187.375 C153.99693115 187.89940674 154.7438623 188.42381348 155.51342773 188.96411133 C162.39575034 193.72389477 169.52168183 198.04075266 176.74902344 202.25341797 C177.56532227 202.73053223 178.38162109 203.20764648 179.22265625 203.69921875 C179.95234619 204.12033936 180.68203613 204.54145996 181.43383789 204.9753418 C181.95067139 205.313479 182.46750488 205.65161621 183 206 C183 206.33 183 206.66 183 207 C176.05703009 207.59732814 172.56338477 206.14196942 166.9375 202.1875 C166.21087158 201.69846191 165.48424316 201.20942383 164.7355957 200.70556641 C158.97626462 196.79189451 153.34422709 192.68370715 147.82202148 188.44213867 C144.91476884 186.23824705 142.62353628 184.56932375 139 184 C136.05514371 184.87060369 136.05514371 184.87060369 132.9375 186.25 C113.68085379 193.97827708 94.55833579 195.45292941 74.0234375 195.29296875 C71.87440287 195.28735735 69.72536434 195.28309458 67.57632446 195.28010559 C61.98361173 195.26877823 56.39114142 195.23941867 50.79852295 195.20599365 C45.06623614 195.17502821 39.33390926 195.16154429 33.6015625 195.14648438 C22.40093651 195.11453461 11.20048859 195.06348917 0 195 C0 194.01 0 193.02 0 192 C1.35544922 191.70996094 1.35544922 191.70996094 2.73828125 191.4140625 C3.91777344 191.15367187 5.09726563 190.89328125 6.3125 190.625 C7.48425781 190.36976563 8.65601562 190.11453125 9.86328125 189.8515625 C13.12920445 189.14304469 13.12920445 189.14304469 16 187 C17.16139544 183.51581369 17.1377181 180.78307437 17.15390015 177.10513306 C17.1582824 176.39964305 17.16266465 175.69415305 17.1671797 174.96728456 C17.1805606 172.59749039 17.18674489 170.2277334 17.19287109 167.85791016 C17.20077245 166.16116671 17.20904143 164.46442494 17.21765137 162.76768494 C17.2438617 157.19149377 17.25917534 151.61529511 17.2734375 146.0390625 C17.27879708 144.12023285 17.28417459 142.20140325 17.28956985 140.2825737 C17.31119473 132.30287896 17.32993289 124.32318624 17.34119225 116.34346962 C17.35744233 104.90173663 17.39065022 93.46034262 17.44759309 82.01873744 C17.48625775 73.97620243 17.50582065 65.93375824 17.51111281 57.89113271 C17.51477027 53.08588416 17.52683379 48.28099725 17.55921555 43.47584915 C17.5892361 38.95643434 17.59562967 34.43760116 17.58383179 29.91810799 C17.58361056 28.2592496 17.59195588 26.60036467 17.60948563 24.94159889 C17.63211939 22.67664078 17.62391217 20.41380233 17.60800171 18.14883423 C17.61131186 16.88157816 17.614622 15.61432209 17.61803246 14.30866432 C16.83135332 10.09714248 15.31212972 8.63199375 12 6 C8.90933671 4.98609683 8.90933671 4.98609683 5.6875 4.6875 C4.61886719 4.54699219 3.55023438 4.40648438 2.44921875 4.26171875 C1.64097656 4.17535156 0.83273438 4.08898437 0 4 C0 2.68 0 1.36 0 0 Z " fill="#060606" transform="translate(103,101)"/>
<path d="M0 0 C1.13783936 0.00942627 2.27567871 0.01885254 3.44799805 0.02856445 C24.22260123 0.40004165 42.46956082 6.48453692 57.9375 20.5625 C68.4982232 31.88506641 78.61872333 49.64669655 78.1875 65.375 C77.63513672 65.49504395 77.08277344 65.61508789 76.51367188 65.73876953 C56.37235765 70.17336295 33.65005283 75.23179849 20.1875 92.375 C14.90986075 100.9704534 13.86553737 109.83132336 15.61328125 119.8046875 C16.31784011 122.09558442 17.18795075 124.19513195 18.1875 126.375 C18.67476562 127.46683594 19.16203125 128.55867187 19.6640625 129.68359375 C23.23982723 137.40010453 27.52809744 144.00028261 33.1875 150.375 C33.92226562 151.21804687 34.65703125 152.06109375 35.4140625 152.9296875 C42.91333006 162.22733755 42.91333006 162.22733755 52.1875 169.375 C52.1875 170.365 52.1875 171.355 52.1875 172.375 C37.85899513 184.49249309 18.08680197 187.93313169 -0.10107422 187.76611328 C-2.2073476 187.74984672 -4.31174834 187.76616374 -6.41796875 187.78515625 C-19.73579285 187.8121828 -19.73579285 187.8121828 -25.8125 184.375 C-29.41256946 179.9467877 -30.31427217 176.94055713 -30.3271637 171.2779541 C-30.33410922 170.5869406 -30.34105475 169.8959271 -30.34821075 169.18397379 C-30.36642976 166.88077929 -30.3562316 164.57862081 -30.34594727 162.27539062 C-30.35300832 160.61922945 -30.36175412 158.96307473 -30.37205505 157.30693054 C-30.39453661 152.81725078 -30.39161247 148.32792374 -30.38273358 143.83820915 C-30.37762023 140.08808901 -30.38491897 136.33803495 -30.39220566 132.58792162 C-30.40920033 123.74100997 -30.40564268 114.89427084 -30.38891602 106.04736328 C-30.37198847 96.92336665 -30.38783883 87.79984822 -30.4201389 78.6759038 C-30.44683423 70.837926 -30.45411115 63.00009707 -30.44562382 55.16207838 C-30.44069523 50.48264417 -30.44290669 45.8034978 -30.46341133 41.12409973 C-30.48176805 36.72440136 -30.47581023 32.32539115 -30.45121193 27.92572975 C-30.44620427 26.31246598 -30.44969273 24.69914977 -30.46236038 23.08592796 C-30.47830646 20.88051117 -30.46333022 18.67735646 -30.44068909 16.4720459 C-30.44010278 15.23910545 -30.43951647 14.00616501 -30.43891239 12.73586273 C-29.59993515 8.23453521 -28.02780776 6.59775082 -24.8125 3.375 C-17.16104935 -0.15643876 -8.27866055 -0.10679355 0 0 Z " fill="#FEFEFE" transform="translate(180.8125,104.625)"/>
<path d="M0 0 C4.43474708 29.43384555 1.71787481 64.57035295 -15.79296875 89.55859375 C-18.58957396 93.28541306 -21.16048529 96.31736963 -25 99 C-40.77617196 84.98577164 -60.08083947 66.97814648 -62.23828125 44.51953125 C-62.50812148 34.67746404 -59.68980572 28.06099595 -52.9609375 20.90625 C-40.1991337 8.50035308 -18.07153283 -0.53151567 0 0 Z " fill="#FCFCFC" transform="translate(261,174)"/>
<path d="M0 0 C2.17865388 1.54476681 3.50796136 2.66283742 4.59765625 5.1328125 C4.68122766 9.06066865 4.00029356 10.67265558 1.41015625 13.6328125 C-12.71330493 23.91945519 -31.50979422 25.64457251 -48.40234375 27.1328125 C-46.34664219 16.62589342 -38.90838952 8.28159016 -30.40234375 2.1328125 C-20.9966186 -3.07581539 -9.78264527 -5.74504425 0 0 Z " fill="#F9F9F9" transform="translate(248.40234375,305.8671875)"/>
<path d="M0 0 C0.99 0.66 1.98 1.32 3 2 C2.67 2.66 2.34 3.32 2 4 C1.00871094 3.96777344 0.01742187 3.93554688 -1.00390625 3.90234375 C-17.70923787 4.31058744 -35.06465839 11.6797455 -48 22 C-48.69351563 22.50789063 -49.38703125 23.01578125 -50.1015625 23.5390625 C-60.43682697 31.63967519 -66.55765108 44.7165991 -68.6875 57.4375 C-68.81705078 58.16904297 -68.94660156 58.90058594 -69.08007812 59.65429688 C-69.39429815 61.434877 -69.69824068 63.21726583 -70 65 C-71.98 65 -73.96 65 -76 65 C-75.58848196 48.42704622 -66.76228365 33.30347117 -55 22 C-43.13103697 11.79889779 -29.07767731 5.65402894 -14 2 C-13.195625 1.77570313 -12.39125 1.55140625 -11.5625 1.3203125 C-7.63080485 0.23313922 -4.07624291 -0.37918539 0 0 Z " fill="#131313" transform="translate(192,334)"/>
<path d="M0 0 C-0.33 0.66 -0.66 1.32 -1 2 C-1.928125 1.979375 -2.85625 1.95875 -3.8125 1.9375 C-8.9004688 1.92703093 -13.94286245 2.4878848 -19 3 C-16.64933749 -0.52599377 -15.12205099 -0.78319135 -11.09765625 -1.65234375 C-6.50964094 -2.41274107 -3.92357169 -2.61571446 0 0 Z " fill="#1F1F1F" transform="translate(195,336)"/>
<path d="M0 0 C-1 3 -1 3 -3.3984375 4.421875 C-4.38070312 4.86015625 -5.36296875 5.2984375 -6.375 5.75 C-7.35210937 6.19859375 -8.32921875 6.6471875 -9.3359375 7.109375 C-12 8 -12 8 -15 7 C-14 4 -14 4 -11.34765625 2.578125 C-10.26355469 2.13984375 -9.17945313 1.7015625 -8.0625 1.25 C-6.98097656 0.80140625 -5.89945313 0.3528125 -4.78515625 -0.109375 C-2 -1 -2 -1 0 0 Z " fill="#171717" transform="translate(248,322)"/>
<path d="M0 0 C0 0.66 0 1.32 0 2 C-1.57914015 2.53341184 -3.16354387 3.05125763 -4.75 3.5625 C-5.63171875 3.85253906 -6.5134375 4.14257812 -7.421875 4.44140625 C-10.07834316 5.01697435 -11.47031106 4.89248371 -14 4 C-12.66065756 1.32131513 -11.48307603 1.25045922 -8.6875 0.3125 C-7.90761719 0.04050781 -7.12773437 -0.23148437 -6.32421875 -0.51171875 C-3.81725489 -1.03839183 -2.39867657 -0.8178554 0 0 Z " fill="#141414" transform="translate(177,338)"/>
<path d="M0 0 C-0.33 0.99 -0.66 1.98 -1 3 C-2.65 3.33 -4.3 3.66 -6 4 C-6.33 3.34 -6.66 2.68 -7 2 C-5.26578631 -1.46842738 -3.40984787 -1.13661596 0 0 Z " fill="#292929" transform="translate(240,326)"/>
<path d="M0 0 C0 0.66 0 1.32 0 2 C-2.31 2.33 -4.62 2.66 -7 3 C-6.67 2.01 -6.34 1.02 -6 0 C-3.42525708 -0.99667468 -2.51072708 -1.25536354 0 0 Z " fill="#0D0D0D" transform="translate(170,340)"/>
</svg>
